<svg width="36" height="29" viewBox="0 0 36 29" fill="none" xmlns="http://www.w3.org/2000/svg">
<g id="Group">
<path id="Vector" d="M21.9018 9.18933H13.5274C11.8567 9.18933 10.4976 10.5484 10.4976 12.2191C10.4976 13.8898 11.8567 15.2489 13.5274 15.2489H21.9018C23.5724 15.2489 24.9316 13.8898 24.9316 12.2191C24.9316 10.5484 23.5724 9.18933 21.9018 9.18933ZM14.7758 12.5935C14.7758 13.1575 14.3185 13.6148 13.7545 13.6148C13.1905 13.6148 12.7332 13.1575 12.7332 12.5935V11.8446C12.7332 11.2806 13.1905 10.8233 13.7545 10.8233C14.3185 10.8233 14.7758 11.2806 14.7758 11.8446V12.5935ZM22.6959 12.5935C22.6959 13.1575 22.2387 13.6148 21.6746 13.6148C21.1106 13.6148 20.6534 13.1575 20.6534 12.5935V11.8446C20.6534 11.2806 21.1106 10.8233 21.6746 10.8233C22.2387 10.8233 22.6959 11.2806 22.6959 11.8446V12.5935Z" fill="#188F79"/>
<path id="Vector_2" d="M30.0382 14.636V12.6619C30.0382 5.83467 24.5064 0.474457 17.7148 0.474457C10.9159 0.474457 5.39136 5.83549 5.39136 12.6619V14.636C5.39136 17.7861 7.96096 20.3554 11.1107 20.3554H24.3189C27.4686 20.3554 30.0382 17.7857 30.0382 14.636ZM13.5275 17.2914C10.7307 17.2914 8.45519 15.016 8.45519 12.2191C8.45519 9.42215 10.7306 7.14674 13.5275 7.14674H21.902C24.6989 7.14674 26.9744 9.42215 26.9744 12.2191C26.9744 15.016 24.6989 17.2914 21.902 17.2914H13.5275Z" fill="#188F79"/>
<path id="Vector_3" d="M23.0252 24.4405H20.7784C19.655 24.4405 18.7358 25.3596 18.7358 26.483C18.7358 27.6064 19.655 28.5256 20.7784 28.5256H23.0252C24.1486 28.5256 25.0678 27.6064 25.0678 26.483C25.0678 25.3596 24.1486 24.4405 23.0252 24.4405Z" fill="#188F79"/>
<path id="Vector_4" d="M33.1018 21.3423C33.1018 23.6122 31.1371 25.5298 28.8115 25.5298H26.9969C27.0703 25.8358 27.1103 26.1547 27.1103 26.483C27.1103 26.8602 27.0578 27.2252 26.9617 27.5723H28.8115C32.2443 27.5723 35.1444 24.7194 35.1444 21.3423V19.3463C34.5503 19.7933 33.8561 20.1139 33.1018 20.2676V21.3423Z" fill="#188F79"/>
<path id="Vector_5" d="M32.0809 8.04696H31.9925V2.14097C31.9925 1.57695 31.5352 1.11969 30.9712 1.11969C30.4072 1.11969 29.95 1.57695 29.95 2.14097V5.16041C31.3379 7.38353 32.0809 9.96036 32.0809 12.6619V14.636C32.0809 15.9715 31.7418 17.2293 31.1453 18.3278H32.0809C33.7703 18.3278 35.1447 16.9534 35.1447 15.264V11.1108C35.1447 9.42139 33.7703 8.04696 32.0809 8.04696Z" fill="#188F79"/>
<path id="Vector_6" d="M3.3485 12.6619C3.3485 9.95913 4.09152 7.38149 5.47937 5.1581V2.14097C5.47937 1.57695 5.02211 1.11969 4.45809 1.11969C3.89407 1.11969 3.43681 1.57695 3.43681 2.14097V8.04696H3.3485C1.65911 8.04696 0.284668 9.42139 0.284668 11.1108V15.264C0.284668 16.9534 1.65911 18.3278 3.3485 18.3278H4.28413C3.68757 17.2293 3.3485 15.9715 3.3485 14.636V12.6619Z" fill="#188F79"/>
</g>
</svg>
