<svg width="375" height="376" viewBox="0 0 375 376" fill="none" xmlns="http://www.w3.org/2000/svg">
<path d="M223.592 354.38C223.592 356.44 210.477 358.102 194.264 358.102C178.051 358.102 164.936 356.44 164.936 354.38C164.936 352.32 178.051 350.62 194.264 350.62C210.477 350.62 223.592 352.32 223.592 354.38Z" fill="#E0E0E0"/>
<path d="M136.616 112.935C139.039 111.473 141.647 110.34 144.369 109.566L145.963 101.888L158.935 101.663L160.8 109.273C163.549 109.949 166.195 110.991 168.666 112.371L175.224 108.077L184.556 117.101L180.488 123.802C181.953 126.223 183.086 128.831 183.857 131.555L191.512 133.104L191.738 146.076L184.127 147.941C183.451 150.69 182.409 153.335 181.029 155.807L185.323 162.364L176.299 171.689L169.599 167.628C167.173 169.091 164.563 170.224 161.838 170.997L160.244 178.675L147.279 178.901L145.407 171.291C142.66 170.607 140.016 169.566 137.541 168.192L130.991 172.486L121.659 163.462L125.719 156.762C124.257 154.339 123.124 151.731 122.351 149.009L114.673 147.415L114.447 134.443L122.065 132.578C122.742 129.83 123.781 127.185 125.155 124.712L120.862 118.154L129.886 108.829L136.586 112.89L136.616 112.935ZM143.527 130.231C141.616 132.211 140.335 134.713 139.846 137.42C139.356 140.128 139.681 142.92 140.779 145.443C141.876 147.966 143.697 150.107 146.012 151.595C148.326 153.083 151.029 153.852 153.781 153.804C156.532 153.755 159.207 152.892 161.467 151.324C163.728 149.755 165.472 147.551 166.48 144.991C167.489 142.431 167.715 139.629 167.131 136.941C166.547 134.252 165.179 131.797 163.199 129.885C160.548 127.322 156.987 125.916 153.3 125.976C149.612 126.037 146.1 127.559 143.534 130.209L143.527 130.231Z" fill="#F5F5F5"/>
<path d="M212.891 135.556C214.931 134.85 217.055 134.42 219.208 134.277L221.622 128.81L231.323 130.705L231.503 136.676C233.447 137.619 235.255 138.818 236.88 140.24L242.445 138.075L247.972 146.279L243.874 150.626C244.578 152.665 245.008 154.789 245.152 156.942L250.619 159.356L248.732 169.057L242.753 169.238C241.812 171.18 240.616 172.988 239.196 174.614L241.355 180.187L233.158 185.744L228.804 181.653C226.765 182.36 224.64 182.787 222.487 182.924L220.08 188.399L210.372 186.496L210.192 180.48C208.25 179.542 206.444 178.345 204.822 176.923L199.25 179.081L193.768 170.892L197.859 166.545C197.154 164.506 196.724 162.382 196.58 160.229L191.113 157.815L192.971 148.144L198.942 147.964C199.885 146.024 201.081 144.219 202.499 142.594L200.34 137.022L208.545 131.502L212.891 135.593V135.556ZM215.298 149.535C213.557 150.707 212.202 152.369 211.406 154.311C210.609 156.253 210.407 158.387 210.823 160.444C211.24 162.502 212.257 164.389 213.747 165.868C215.236 167.346 217.131 168.35 219.191 168.752C221.251 169.154 223.384 168.936 225.32 168.125C227.256 167.315 228.908 165.949 230.068 164.199C231.227 162.449 231.842 160.395 231.833 158.296C231.825 156.198 231.195 154.148 230.022 152.408C228.45 150.075 226.016 148.462 223.255 147.923C220.493 147.385 217.632 147.964 215.298 149.535Z" fill="#EBEBEB"/>
<path d="M272.734 247.696C272.776 247.904 272.756 248.121 272.675 248.318C272.594 248.514 272.456 248.683 272.279 248.801C272.102 248.92 271.894 248.983 271.682 248.984C271.469 248.984 271.261 248.921 271.084 248.803C270.907 248.685 270.768 248.517 270.687 248.32C270.605 248.124 270.584 247.908 270.625 247.699C270.667 247.49 270.769 247.298 270.92 247.148C271.07 246.997 271.262 246.895 271.471 246.853C271.75 246.798 272.04 246.856 272.277 247.014C272.513 247.171 272.678 247.417 272.734 247.696Z" fill="#E0E0E0"/>
<path d="M273.788 288.309C273.795 288.344 273.795 288.38 273.788 288.415C273.781 288.45 273.767 288.484 273.747 288.513C273.728 288.543 273.702 288.569 273.672 288.588C273.642 288.608 273.609 288.622 273.574 288.629C273.539 288.636 273.503 288.636 273.468 288.629C273.433 288.622 273.4 288.608 273.37 288.588C273.34 288.568 273.315 288.542 273.295 288.513C273.275 288.483 273.261 288.45 273.254 288.415C273.241 288.344 273.255 288.27 273.295 288.21C273.336 288.15 273.398 288.109 273.469 288.095C273.54 288.081 273.613 288.096 273.673 288.136C273.733 288.176 273.774 288.238 273.788 288.309Z" fill="#E0E0E0"/>
<path d="M273.646 257.658C273.659 257.729 273.645 257.802 273.605 257.862C273.564 257.922 273.502 257.963 273.431 257.977C273.36 257.991 273.287 257.977 273.227 257.936C273.167 257.896 273.126 257.834 273.112 257.763C273.104 257.727 273.104 257.691 273.111 257.655C273.117 257.619 273.132 257.585 273.152 257.555C273.172 257.525 273.198 257.499 273.229 257.479C273.26 257.459 273.294 257.446 273.33 257.44C273.365 257.433 273.401 257.434 273.436 257.441C273.47 257.449 273.504 257.463 273.533 257.483C273.562 257.503 273.587 257.529 273.607 257.559C273.626 257.589 273.639 257.623 273.646 257.658Z" fill="#E0E0E0"/>
<path d="M318.277 263.719C318.283 263.754 318.283 263.79 318.275 263.825C318.268 263.86 318.254 263.893 318.233 263.922C318.213 263.951 318.187 263.977 318.157 263.996C318.127 264.015 318.094 264.028 318.059 264.035C318.024 264.042 317.988 264.043 317.953 264.036C317.918 264.03 317.885 264.016 317.856 263.997C317.826 263.977 317.801 263.952 317.782 263.922C317.762 263.892 317.749 263.859 317.743 263.824C317.735 263.789 317.734 263.753 317.741 263.718C317.747 263.682 317.761 263.648 317.78 263.618C317.8 263.588 317.825 263.562 317.855 263.542C317.885 263.522 317.918 263.508 317.953 263.501C317.989 263.493 318.026 263.493 318.061 263.5C318.097 263.507 318.131 263.521 318.161 263.541C318.192 263.561 318.217 263.588 318.237 263.618C318.257 263.649 318.27 263.683 318.277 263.719Z" fill="#E0E0E0"/>
<path d="M319.517 250.499C319.525 250.533 319.526 250.569 319.519 250.604C319.513 250.639 319.499 250.672 319.479 250.702C319.46 250.731 319.434 250.756 319.405 250.776C319.375 250.795 319.342 250.808 319.307 250.815C319.272 250.822 319.236 250.823 319.2 250.816C319.165 250.81 319.131 250.797 319.101 250.777C319.071 250.757 319.045 250.732 319.025 250.702C319.005 250.673 318.991 250.639 318.984 250.604C318.976 250.568 318.976 250.532 318.982 250.496C318.989 250.46 319.003 250.426 319.024 250.396C319.044 250.366 319.07 250.34 319.101 250.32C319.131 250.3 319.166 250.287 319.202 250.281C319.237 250.274 319.273 250.275 319.308 250.282C319.342 250.29 319.375 250.304 319.405 250.324C319.434 250.344 319.459 250.37 319.479 250.4C319.498 250.43 319.511 250.464 319.517 250.499Z" fill="#E0E0E0"/>
<path d="M258.921 101.377C256.642 95.3949 253.15 89.9491 248.664 85.3821C240.911 77.456 232.075 70.4549 222.081 65.5368C212.087 60.6187 195.761 56.2571 183.902 56.3248C177.766 56.0842 174.667 56.4677 169.087 58.6259C165.606 59.972 162.68 63.0777 162.44 66.755C162.214 70.1616 164.32 74.3502 167.132 76.3355C179.224 84.8632 188.384 85.3069 200.115 89.0594C211.846 92.8118 223.908 98.3691 230.233 108.807C233.669 114.462 235.624 121.711 241.58 124.712C247.356 127.629 254.966 124.802 258.508 119.448C262.05 114.093 261.207 107.356 258.921 101.377Z" fill="#F5F5F5"/>
<path d="M302.86 174.918L293.452 209.51L264.876 217.406C264.412 217.562 264.022 217.884 263.782 218.31C263.541 218.737 263.468 219.237 263.575 219.715L294.843 211.676L295.911 211.337L332.977 201.411L337.121 185.017L342.467 165.766C342.575 165.515 342.612 165.239 342.574 164.969C342.537 164.698 342.427 164.442 342.255 164.23C342.083 164.017 341.857 163.855 341.6 163.762C341.344 163.668 341.066 163.646 340.798 163.698L303.852 173.843C303.607 173.919 303.386 174.058 303.211 174.247C303.037 174.436 302.916 174.667 302.86 174.918Z" fill="#EBEBEB"/>
<path d="M304.785 176.038L296.227 207.562L329.811 198.343L337.324 167.27L304.785 176.038Z" fill="#FAFAFA"/>
<path d="M340.798 163.698C340.808 163.758 340.808 163.819 340.798 163.879C340.76 164.022 340.723 164.195 340.678 164.413C340.557 164.901 340.392 165.586 340.189 166.45C339.738 168.248 339.099 170.812 338.309 173.97C336.677 180.393 334.414 189.296 331.849 199.35V199.463H331.736L326.36 200.915L297.415 208.638L288.632 210.931L286.24 211.54L285.616 211.683L285.398 211.721C285.463 211.689 285.531 211.664 285.601 211.646L286.218 211.465L288.594 210.788L297.34 208.367L326.254 200.531L331.639 199.087L331.496 199.23C334.105 189.183 336.414 180.287 338.083 173.88C338.918 170.707 339.587 168.158 340.076 166.36C340.309 165.503 340.497 164.856 340.633 164.337C340.693 164.127 340.738 163.954 340.783 163.818C340.828 163.683 340.798 163.698 340.798 163.698Z" fill="#E0E0E0"/>
<path d="M106.942 35.2688C106.608 33.7753 105.788 32.4346 104.611 31.4562C102.726 29.5779 100.302 28.3344 97.6775 27.8992C96.2822 27.7066 94.8623 27.8007 93.5047 28.1756C92.147 28.5506 90.8801 29.1986 89.7815 30.08C88.7217 30.9251 87.8533 31.9855 87.2337 33.191C86.614 34.3966 86.2573 35.7199 86.1869 37.0736C85.9313 38.8483 87.7812 40.3448 89.5634 40.435C91.3457 40.5253 93.0301 39.683 94.6319 38.8784C96.2337 38.0738 98.0009 37.3293 99.7605 37.6602C101.52 37.991 103.22 39.4198 104.957 38.901C106.408 38.5024 107.175 36.7653 106.942 35.2688Z" fill="#F5F5F5"/>
<path d="M118.741 32.336C118.636 30.9448 117.56 28.7414 114.981 29.0648C113.928 29.0648 112.793 30.3658 112.522 31.3885C112.4 31.9033 112.422 32.4419 112.587 32.9448C112.751 33.4478 113.052 33.8955 113.454 34.2386C113.869 34.5771 114.356 34.8162 114.877 34.9375C115.399 35.0587 115.941 35.0588 116.462 34.9379C117.688 34.6747 118.839 33.5918 118.741 32.336Z" fill="#F5F5F5"/>
<path d="M42.0097 173.383L41.6186 174.428C41.4992 174.752 41.4489 175.098 41.4709 175.442C41.4929 175.787 41.5868 176.123 41.7465 176.429L63.0206 217.15C63.1753 217.446 63.3883 217.708 63.6467 217.92C63.9051 218.132 64.2037 218.289 64.5246 218.383L65.7278 218.706C65.999 218.782 66.2815 218.81 66.5625 218.789L91.3785 216.834C91.971 216.786 92.5259 216.524 92.9407 216.099C93.3554 215.673 93.6019 215.111 93.6345 214.518C93.6578 214.069 93.5591 213.622 93.3487 213.224L70.7887 171.157C70.5625 170.737 70.2187 170.391 69.7994 170.163C69.3801 169.935 68.9034 169.833 68.4274 169.871L44.1529 171.789C43.68 171.82 43.2262 171.987 42.8459 172.27C42.4657 172.553 42.1753 172.939 42.0097 173.383Z" fill="#E0E0E0"/>
<path d="M43.5663 172.804L66.1414 215.006L91.7169 212.991L69.3148 170.781L43.5663 172.804Z" fill="#FAFAFA"/>
<path d="M87.9125 271.149L88.7322 272.517C89.651 274.069 90.9984 275.322 92.6125 276.127L94.0488 276.834L92.6802 277.631C91.1404 278.553 89.8999 279.9 89.1082 281.511L88.3938 282.94L87.5741 281.571C86.6477 280.035 85.3013 278.796 83.6938 277.999L82.2574 277.292L83.6336 276.465C85.1678 275.54 86.4067 274.196 87.2056 272.592L87.9125 271.149Z" fill="#EBEBEB"/>
<path d="M301.032 63.6988L301.851 65.0675C302.778 66.6038 304.124 67.8431 305.732 68.6395L307.16 69.3463L305.792 70.166C304.255 71.0924 303.016 72.4388 302.22 74.0463L301.513 75.4827L300.693 74.114C299.771 72.5742 298.424 71.3338 296.813 70.542L295.376 69.8351L296.745 69.0079C298.285 68.0859 299.525 66.7383 300.317 65.1276L301.032 63.6988Z" fill="#EBEBEB"/>
<path d="M310.454 84.9428L311.168 86.131C311.973 87.466 313.142 88.5435 314.537 89.2367L315.786 89.8534L314.598 90.6054C313.26 91.4104 312.183 92.5823 311.492 93.9819L310.875 95.2227L310.168 93.9969C309.363 92.6598 308.191 91.5818 306.792 90.8911L305.544 90.3121L306.732 89.5601C308.067 88.7558 309.144 87.587 309.837 86.1911L310.454 84.9428Z" fill="#EBEBEB"/>
<path d="M72.0302 255.68L72.6093 256.65C73.2639 257.737 74.2165 258.614 75.3541 259.177L76.3693 259.681L75.3992 260.26C74.3119 260.914 73.4351 261.867 72.8725 263.004L72.3686 264.02L71.7896 263.05C71.1269 261.961 70.1667 261.084 69.0222 260.523L68.007 260.019L68.9771 259.44C70.0643 258.785 70.9412 257.833 71.5038 256.695L72.0302 255.68Z" fill="#EBEBEB"/>
<path d="M294.954 268.066L295.54 269.036C296.19 270.127 297.144 271.005 298.285 271.563L299.293 272.066L298.323 272.653C297.237 273.307 296.361 274.256 295.796 275.39L295.3 276.406L294.713 275.435C294.058 274.348 293.106 273.471 291.968 272.909L290.953 272.412L291.923 271.826C293.014 271.176 293.892 270.222 294.45 269.081L294.954 268.066Z" fill="#EBEBEB"/>
<path d="M92.3634 50.4282L92.9425 51.3983C93.5972 52.4855 94.5497 53.3624 95.6873 53.925L96.7025 54.4288L95.7324 55.0079C94.6419 55.6686 93.7648 56.6293 93.2057 57.7752L92.7018 58.7904L92.1153 57.7752C91.4587 56.6896 90.5066 55.8132 89.3705 55.2485L88.3553 54.7672L89.3254 54.1807C90.411 53.5241 91.2874 52.5721 91.8521 51.4359L92.3634 50.4282Z" fill="#EBEBEB"/>
<path d="M309.986 233.562L310.573 234.532C311.225 235.621 312.178 236.499 313.317 237.059L314.333 237.563L313.363 238.142C312.273 238.794 311.396 239.748 310.836 240.887L310.332 241.902L309.745 240.932C309.091 239.847 308.142 238.97 307.008 238.405L305.993 237.909L306.963 237.322C308.049 236.666 308.925 235.714 309.49 234.578L309.986 233.562Z" fill="#EBEBEB"/>
<path d="M60.4764 85.8164L61.063 86.779C61.7133 87.8698 62.667 88.7477 63.8078 89.3057L64.8155 89.8096L63.8529 90.3961C62.7621 91.0464 61.8842 92.0001 61.3262 93.1409L60.8223 94.1486L60.2583 93.2161C59.6037 92.1289 58.6511 91.252 57.5135 90.6894L56.5059 90.1931L57.4684 89.6065C58.5595 88.9543 59.4394 88.0013 60.0027 86.8617L60.4764 85.8164Z" fill="#EBEBEB"/>
<path d="M343.326 348.176C343.326 348.281 276.593 348.371 194.302 348.371C112.011 348.371 45.2631 348.259 45.2631 348.176C45.2631 348.093 111.973 347.98 194.302 347.98C276.631 347.98 343.326 348.041 343.326 348.176Z" fill="#263238"/>
<path d="M170.727 27.824L171.268 28.7264C171.875 29.7391 172.76 30.5561 173.818 31.0802L174.765 31.5464L173.863 32.0878C172.858 32.6843 172.042 33.5523 171.509 34.592L171.043 35.5395L170.501 34.6371C169.892 33.6239 169.004 32.807 167.944 32.2834L167.004 31.8171L167.907 31.2757C168.916 30.667 169.73 29.7824 170.253 28.7264L170.727 27.824Z" fill="#188F79"/>
<path d="M297.649 112.8L298.191 113.702C298.8 114.716 299.687 115.533 300.748 116.056L301.688 116.522L300.785 117.064C299.776 117.673 298.962 118.557 298.439 119.613L297.973 120.561L297.431 119.658C296.822 118.645 295.934 117.828 294.874 117.304L293.934 116.838L294.829 116.297C295.84 115.688 296.657 114.804 297.183 113.748L297.649 112.8Z" fill="#188F79"/>
<path d="M120.072 233.767L120.471 234.428C120.916 235.16 121.56 235.749 122.328 236.128L123.02 236.466L122.358 236.865C121.62 237.31 121.025 237.957 120.643 238.73L120.305 239.414L119.907 238.76C119.463 238.023 118.819 237.428 118.049 237.045L117.357 236.7L118.019 236.308C118.757 235.863 119.352 235.216 119.734 234.444L120.072 233.767Z" fill="#188F79"/>
<path d="M66.9056 131.72L67.2967 132.375C67.7407 133.115 68.388 133.713 69.1616 134.097L69.8535 134.435L69.1917 134.826C68.457 135.275 67.863 135.921 67.4772 136.691L67.1388 137.383L66.7402 136.721C66.295 135.983 65.6479 135.388 64.8752 135.007L64.1909 134.668L64.8452 134.27C65.5849 133.827 66.1805 133.179 66.5597 132.405L66.9056 131.72Z" fill="#188F79"/>
<path d="M199.461 19.349L199.686 19.725C199.942 20.1461 200.312 20.4853 200.754 20.7026L201.153 20.8981L200.777 21.1312C200.349 21.3799 200.004 21.7486 199.784 22.1915L199.588 22.5901L199.363 22.2141C199.104 21.7886 198.728 21.4466 198.28 21.229L197.904 21.056L198.288 20.8304C198.709 20.5751 199.048 20.2046 199.265 19.7626L199.461 19.349Z" fill="#188F79"/>
<path d="M156.394 38.5475L156.619 38.9235C156.87 39.3448 157.235 39.6863 157.672 39.9087L158.063 40.1042L157.687 40.3298C157.266 40.5851 156.927 40.9556 156.709 41.3976L156.514 41.7887L156.281 41.4127C156.029 40.9895 155.661 40.6476 155.221 40.4275L154.822 40.232L155.198 40.0064C155.617 39.7513 155.954 39.3805 156.168 38.9386L156.394 38.5475Z" fill="#188F79"/>
<path d="M124.915 243.648L125.141 244.024C125.395 244.447 125.766 244.789 126.208 245.009L126.599 245.205L126.223 245.43C125.802 245.686 125.463 246.056 125.246 246.498L125.05 246.889L124.825 246.513C124.568 246.091 124.198 245.75 123.757 245.528L123.358 245.332L123.734 245.107C124.159 244.854 124.502 244.483 124.719 244.039L124.915 243.648Z" fill="#188F79"/>
<path d="M235.564 299.168L142.316 298.95C138.451 298.95 135.323 296.22 135.33 292.874C135.33 289.535 138.481 286.858 142.346 286.858L235.594 287.076C239.46 287.076 242.58 289.798 242.573 293.145C242.565 296.468 239.429 299.176 235.564 299.168Z" fill="#455A64"/>
<path d="M235.564 284.459L142.316 284.248C138.451 284.248 135.323 281.519 135.33 278.172C135.33 274.826 138.481 272.156 142.346 272.156L235.594 272.367C239.46 272.367 242.58 275.097 242.573 278.443C242.565 281.767 239.429 284.467 235.564 284.459Z" fill="#455A64"/>
<path d="M231.819 301.364L146.452 301.168C144.833 301.28 143.316 302.001 142.208 303.188C141.1 304.374 140.484 305.937 140.484 307.56C140.484 309.184 141.1 310.747 142.208 311.933C143.316 313.12 144.833 313.841 146.452 313.952H155.822L168.2 337.693C168.898 339.02 169.943 340.132 171.224 340.911C172.504 341.69 173.973 342.106 175.472 342.115L205.98 342.183C207.496 342.187 208.983 341.773 210.278 340.987C211.573 340.2 212.626 339.07 213.32 337.723L225.457 314.163H231.827C233.446 314.052 234.963 313.33 236.071 312.144C237.179 310.957 237.795 309.394 237.795 307.771C237.795 306.148 237.179 304.585 236.071 303.398C234.963 302.212 233.446 301.49 231.827 301.379L231.819 301.364Z" fill="#455A64"/>
<path d="M261.14 202.04C261.14 202.04 260.907 202.401 260.448 203.07L258.417 206.078L256.936 208.304C256.395 209.124 255.861 210.064 255.244 211.056L253.289 214.29C252.574 215.433 251.958 216.734 251.221 218.05C250.86 218.727 250.469 219.419 250.108 220.125C249.92 220.486 249.732 220.877 249.536 221.208C249.341 221.539 249.183 221.96 249.002 222.344C248.25 223.885 247.498 225.495 246.746 227.187L244.536 232.594C243.836 234.496 243.144 236.496 242.43 238.564C240.982 243.025 239.799 247.568 238.888 252.168C237.86 257.356 237.356 262.634 237.384 267.923V268.05H237.264L137.736 268.103H137.579V267.945C136.533 256.297 133.496 244.914 128.6 234.293C126.036 228.66 123.078 223.215 119.749 217.997C118.064 215.343 116.274 212.733 114.372 210.169C112.469 207.605 110.394 205.161 108.356 202.649L108.108 202.348H108.506L108.363 202.649C99.0406 190.661 92.6791 176.643 89.7965 161.733C89.3904 159.823 89.1422 157.882 88.8414 155.942C88.7211 154.965 88.6309 153.987 88.5256 153.009L88.3752 151.505L88.2774 150.001C88.2248 149.016 88.1346 148.031 88.1045 147.039C88.0744 146.046 88.1045 145.053 88.0443 144.031C87.9842 143.008 88.0443 142.045 88.0443 141.023C88.0443 140 88.0443 139.022 88.1346 138.015C88.5898 129.946 90.0293 121.963 92.421 114.244C99.3637 92.4736 113.769 73.853 133.097 61.664C137.701 58.7624 142.538 56.2472 147.558 54.144C152.487 52.094 157.581 50.4664 162.786 49.2786C172.872 46.9548 183.266 46.2567 193.572 47.2106C198.531 47.6801 203.447 48.5171 208.282 49.7147C212.978 50.9243 217.584 52.4622 222.066 54.317C226.391 56.1792 230.589 58.3246 234.632 60.739C238.517 63.1281 242.242 65.7682 245.784 68.6426C252.478 74.1448 258.408 80.5153 263.418 87.5854C268.048 94.1021 271.838 101.177 274.698 108.641C275.45 110.401 275.969 112.206 276.586 113.966C277.202 115.725 277.608 117.515 278.09 119.23C278.488 121.004 278.924 122.741 279.27 124.494C279.421 125.366 279.579 126.223 279.729 127.08C279.88 127.938 280.045 128.788 280.135 129.645C281.063 136.04 281.352 142.511 281 148.964C280.387 159.327 278.101 169.523 274.232 179.156C272.815 182.656 271.204 186.073 269.404 189.391C267.81 192.264 266.351 194.655 265.103 196.49L263.441 198.934L262.162 200.641L261.117 202.04L262.125 200.641L263.388 198.904L265.043 196.445C266.276 194.58 267.72 192.211 269.299 189.339C271.083 186.015 272.682 182.596 274.089 179.096C280.298 163.402 282.301 146.359 279.902 129.652C279.812 128.795 279.646 127.953 279.496 127.096C279.346 126.238 279.188 125.381 279.03 124.516C278.691 122.787 278.278 121.057 277.849 119.252C277.42 117.447 276.887 115.74 276.345 113.988C275.804 112.236 275.202 110.431 274.458 108.679C271.598 101.242 267.807 94.1977 263.178 87.7133C258.174 80.6813 252.256 74.3465 245.581 68.8757C242.045 66.0197 238.33 63.3923 234.459 61.0098C230.43 58.6048 226.244 56.4719 221.93 54.6253C217.466 52.7791 212.878 51.2488 208.199 50.0456C203.38 48.8494 198.478 48.0173 193.535 47.5565C183.267 46.6089 172.914 47.3096 162.868 49.632C157.684 50.8148 152.609 52.4375 147.7 54.4824C142.701 56.5868 137.884 59.1021 133.3 62.0024C114.025 74.1848 99.6782 92.7905 92.797 114.53C90.4139 122.22 88.9795 130.172 88.5256 138.21C88.473 139.203 88.4654 140.195 88.4354 141.218C88.4053 142.241 88.3526 143.196 88.3978 144.188C88.4429 145.181 88.4354 146.166 88.4579 147.151C88.4805 148.136 88.5707 149.122 88.6309 150.099L88.7211 151.603L88.8715 153.107C88.9768 154.077 89.0746 155.055 89.1949 156.025C89.4882 157.958 89.7363 159.89 90.1349 161.793C93.0038 176.644 99.3368 190.609 108.619 202.551L108.86 202.86H108.469L108.619 202.551C110.672 205.04 112.785 207.477 114.635 210.071C116.485 212.666 118.335 215.268 120.019 217.93C123.361 223.158 126.324 228.619 128.885 234.271C133.805 244.928 136.857 256.352 137.909 268.043L137.744 267.885L237.271 267.938L237.151 268.065C237.137 262.763 237.656 257.472 238.7 252.273C239.606 247.662 240.782 243.107 242.219 238.632C242.971 236.564 243.641 234.564 244.348 232.661C245.054 230.759 245.852 228.976 246.604 227.247C247.356 225.517 248.16 223.946 248.86 222.412L249.393 221.276L249.972 220.193C250.356 219.486 250.724 218.794 251.093 218.118C251.845 216.787 252.462 215.486 253.176 214.358L255.146 211.132C255.763 210.139 256.304 209.199 256.853 208.387C257.402 207.575 257.914 206.838 258.357 206.183L260.418 203.175L261.17 202.16L261.14 202.04Z" fill="#263238"/>
<path d="M101.821 175.667C101.783 175.602 101.755 175.531 101.738 175.457C101.678 175.291 101.61 175.081 101.52 174.817C101.325 174.231 101.061 173.411 100.723 172.366L100.151 170.591C99.9635 169.937 99.7981 169.215 99.6025 168.448C99.2265 166.899 98.7227 165.154 98.3993 163.184C98.2189 162.199 98.0309 161.169 97.8278 160.093C97.6248 159.018 97.5345 157.882 97.3766 156.709C97.0232 154.378 96.9104 151.866 96.7374 149.189C96.5131 143.443 96.7646 137.688 97.4894 131.984C98.3031 126.291 99.5833 120.674 101.317 115.191C102.189 112.687 102.971 110.296 103.934 108.138C104.4 107.055 104.799 105.987 105.273 105.002L106.649 102.174C107.483 100.354 108.439 98.8053 109.206 97.4141C109.604 96.7298 109.958 96.0755 110.311 95.4965L111.334 93.9323L112.755 91.7816L113.131 91.2326C113.221 91.1048 113.266 91.0447 113.274 91.0522C113.281 91.0597 113.274 91.1198 113.169 91.2552L112.823 91.8267L111.462 94.015L110.469 95.5867C110.123 96.1733 109.785 96.8351 109.401 97.5269C108.649 98.9256 107.709 100.475 106.897 102.302L105.543 105.13C105.085 106.115 104.694 107.183 104.235 108.265C103.287 110.416 102.52 112.777 101.663 115.304C99.9638 120.772 98.7064 126.367 97.903 132.036C97.1762 137.718 96.9071 143.449 97.0984 149.174C97.2638 151.806 97.3616 154.318 97.7 156.642C97.8504 157.807 97.9406 158.943 98.1286 160.018C98.3166 161.093 98.4971 162.116 98.6776 163.101C98.9709 165.079 99.4296 166.861 99.8131 168.365C100.001 169.117 100.159 169.869 100.332 170.516C100.505 171.163 100.708 171.757 100.866 172.298C101.174 173.351 101.422 174.178 101.618 174.765L101.798 175.412C101.819 175.495 101.827 175.581 101.821 175.667Z" fill="#263238"/>
<path d="M130.547 74.448C128.91 76.1157 127.183 77.6922 125.374 79.1705C123.648 80.7505 121.833 82.2294 119.937 83.5998C121.575 81.9311 123.305 80.3545 125.118 78.8773C126.842 77.2991 128.655 75.8203 130.547 74.448Z" fill="#263238"/>
<path d="M262.2 186.579C262.2 186.579 262.2 186.519 262.268 186.406L262.493 185.917L263.388 184.067L264.042 182.736C264.276 182.247 264.501 181.698 264.794 181.119C265.291 179.954 265.915 178.653 266.464 177.156L267.366 174.817C267.675 174.005 267.938 173.14 268.239 172.253C268.87 170.486 269.389 168.553 269.968 166.523C271.126 162.102 271.995 157.611 272.57 153.077C273.09 148.534 273.319 143.963 273.254 139.391C273.172 137.285 273.134 135.277 272.939 133.375C272.856 132.442 272.803 131.54 272.698 130.675C272.593 129.81 272.48 128.983 272.382 128.193C272.209 126.607 271.916 125.185 271.713 123.945C271.6 123.32 271.51 122.734 271.404 122.2C271.299 121.666 271.179 121.192 271.081 120.756L270.652 118.741C270.615 118.53 270.577 118.357 270.555 118.214C270.545 118.155 270.545 118.094 270.555 118.034C270.58 118.09 270.6 118.148 270.615 118.207C270.652 118.35 270.698 118.515 270.75 118.726C270.878 119.215 271.044 119.876 271.254 120.719L271.608 122.162C271.728 122.696 271.826 123.275 271.946 123.9C272.172 125.148 272.487 126.569 272.698 128.156L273.044 130.637C273.157 131.51 273.217 132.412 273.307 133.352C273.518 135.217 273.57 137.232 273.66 139.368C273.892 148.559 272.782 157.735 270.367 166.606C269.773 168.636 269.239 170.576 268.592 172.343C268.276 173.231 268.013 174.096 267.69 174.908L266.765 177.239C266.201 178.743 265.561 180.036 265.043 181.194C264.772 181.773 264.539 182.315 264.291 182.804L263.599 184.12L262.636 185.94L262.38 186.406C262.332 186.474 262.271 186.533 262.2 186.579Z" fill="#263238"/>
<path d="M230.992 94.5189C225.848 91.571 220.464 88.8864 214.681 87.608C213.879 87.3884 213.043 87.3171 212.214 87.3974C211.801 87.4449 211.405 87.5896 211.059 87.8197C210.713 88.0497 210.426 88.3586 210.222 88.721C209.725 89.7512 210.222 90.9769 210.831 91.932C212.222 94.0376 214.305 95.5641 216.403 96.9553C222.156 100.768 228.33 103.874 234.451 106.972C233.699 102.58 232.135 98.8128 230.954 94.5189" fill="#188F79"/>
<path d="M270.427 105.851C272.111 111.537 274.134 117.192 277.428 122.117C277.858 122.833 278.416 123.462 279.075 123.975C279.404 124.229 279.79 124.4 280.2 124.474C280.61 124.547 281.031 124.52 281.429 124.396C282.496 123.997 283.008 122.779 283.203 121.659C283.655 119.177 283.203 116.628 282.654 114.176C281.15 107.408 278.819 100.933 276.511 94.4361C274.036 98.1435 272.54 101.956 270.427 105.851Z" fill="#188F79"/>
<path d="M230.917 94.3985C230.917 94.3985 231.315 133.766 253.409 134.54C275.503 135.315 276.428 94.6843 276.428 94.3985C276.428 94.3985 273.818 88.5329 253.672 88.7585C233.526 88.9841 230.917 94.3985 230.917 94.3985Z" fill="#188F79"/>
<path d="M260.26 110.033C260.15 111.536 259.597 112.972 258.671 114.161C257.745 115.349 256.487 116.236 255.056 116.71C253.626 117.184 252.087 117.222 250.635 116.821C249.182 116.42 247.881 115.597 246.897 114.457C245.912 113.316 245.287 111.909 245.102 110.414C244.917 108.918 245.18 107.402 245.857 106.056C246.534 104.709 247.595 103.594 248.906 102.851C250.217 102.108 251.718 101.77 253.221 101.881C255.235 102.029 257.108 102.971 258.428 104.5C259.748 106.028 260.407 108.018 260.26 110.033Z" fill="#263238"/>
<path d="M258.199 109.882C258.119 110.977 257.716 112.023 257.041 112.889C256.366 113.754 255.45 114.401 254.407 114.745C253.365 115.09 252.244 115.118 251.186 114.826C250.128 114.533 249.181 113.934 248.464 113.103C247.746 112.272 247.291 111.247 247.157 110.158C247.022 109.068 247.213 107.964 247.706 106.983C248.199 106.002 248.972 105.19 249.927 104.649C250.882 104.107 251.976 103.861 253.071 103.941C254.538 104.051 255.902 104.738 256.863 105.852C257.824 106.965 258.305 108.415 258.199 109.882Z" fill="white"/>
<path d="M255.522 110.897C255.48 110.594 255.462 110.287 255.47 109.98C255.47 109.401 255.47 108.589 255.47 107.589L255.53 107.694L252.65 106.032H252.808L249.927 107.649C249.852 107.784 250.033 107.476 250.018 107.506V108.356C250.018 108.634 250.018 108.92 250.018 109.198C250.018 109.747 250.018 110.281 250.018 110.8L249.942 110.657L252.762 112.379H252.635C253.514 111.905 254.244 111.529 254.755 111.266C255.02 111.115 255.296 110.987 255.582 110.882C255.346 111.061 255.094 111.22 254.83 111.356C254.349 111.649 253.627 112.108 252.725 112.597L252.665 112.635L252.604 112.597L249.747 110.935L249.664 110.89V110.792C249.664 110.273 249.664 109.739 249.664 109.19C249.664 108.912 249.664 108.634 249.664 108.348V107.536C249.664 107.536 249.83 107.258 249.747 107.386L252.642 105.784L252.725 105.739L252.8 105.784L255.62 107.513H255.688V107.581C255.688 108.619 255.627 109.454 255.597 110.025C255.599 110.318 255.574 110.61 255.522 110.897Z" fill="#188F79"/>
<path d="M230.819 94.3685C230.819 94.3685 230.864 94.3685 230.939 94.3685L231.27 94.4813L232.556 94.9325L233.474 95.2633L234.594 95.6093C235.391 95.8499 236.294 96.1582 237.324 96.3613L238.926 96.7673C239.482 96.9102 240.069 97.0155 240.678 97.1433C241.881 97.4216 243.197 97.6096 244.566 97.8352C250.551 98.696 256.628 98.696 262.614 97.8352C263.99 97.6171 265.298 97.4291 266.501 97.1509C267.111 97.0155 267.697 96.9102 268.254 96.7749L269.855 96.3613C270.886 96.1206 271.788 95.8123 272.593 95.6093C272.991 95.4889 273.345 95.3837 273.706 95.2709L274.631 94.94L275.909 94.4888L276.24 94.376L276.36 94.3384C276.36 94.3384 276.323 94.3384 276.247 94.391L275.916 94.5189L274.646 94.9926L273.728 95.3385C273.39 95.4589 272.976 95.5641 272.615 95.6995C271.818 95.9401 270.916 96.256 269.885 96.5041L268.284 96.9253C267.727 97.0681 267.141 97.1809 266.532 97.3163C265.321 97.5945 264.012 97.7901 262.636 98.0157C256.635 98.898 250.537 98.898 244.536 98.0157C243.152 97.7901 241.843 97.5945 240.633 97.3088C240.031 97.1809 239.437 97.0681 238.88 96.9253L237.279 96.5041C236.248 96.256 235.354 95.9401 234.549 95.692L233.436 95.3385L232.519 94.9926L231.248 94.5113L230.917 94.3835L230.819 94.3685Z" fill="#263238"/>
<g opacity="0.3">
<path d="M230.917 94.3985C230.917 94.3985 233.526 88.9917 253.672 88.7585C273.818 88.5254 276.428 94.3985 276.428 94.3985C276.428 94.3985 256.109 104.423 230.917 94.3985Z" fill="black"/>
</g>
<path d="M237.843 122.418C237.827 122.4 237.815 122.38 237.805 122.358L237.707 122.185L237.339 121.493L237.083 120.997L236.797 120.388C236.594 119.952 236.369 119.455 236.143 118.884L235.782 118.004L235.429 117.041C235.166 116.38 234.947 115.65 234.677 114.891C234.203 113.387 233.744 111.664 233.338 109.86C232.932 108.055 232.639 106.325 232.398 104.739C232.158 103.152 232 101.731 231.909 100.52C231.849 99.9182 231.812 99.3768 231.782 98.8955C231.751 98.4142 231.729 98.0006 231.714 97.6622V96.9102V96.632C231.714 96.632 231.714 96.632 231.714 96.7072V96.9027C231.714 97.0982 231.714 97.3539 231.774 97.6547C231.834 97.9555 231.819 98.4067 231.864 98.8805C231.909 99.3542 231.947 99.9032 232.007 100.505C232.12 101.708 232.308 103.129 232.534 104.716C232.759 106.303 233.09 108.017 233.481 109.822C233.872 111.627 234.346 113.311 234.805 114.838C235.06 115.59 235.271 116.342 235.557 116.989L235.903 117.959L236.256 118.839C236.467 119.403 236.692 119.899 236.888 120.343L237.158 120.959L237.407 121.463L237.745 122.162L237.828 122.343L237.843 122.418Z" fill="white"/>
<path d="M248.491 131.886C248.372 131.882 248.254 131.867 248.138 131.841C247.819 131.79 247.505 131.715 247.198 131.615C246.739 131.478 246.292 131.307 245.859 131.104C245.335 130.848 244.832 130.551 244.355 130.216C243.877 129.877 243.427 129.5 243.009 129.088C242.668 128.75 242.354 128.385 242.069 127.998C241.874 127.743 241.698 127.474 241.543 127.193C241.477 127.094 241.421 126.988 241.377 126.877C241.377 126.877 241.655 127.299 242.129 127.93C242.422 128.301 242.739 128.653 243.077 128.983C243.496 129.383 243.943 129.753 244.415 130.088C244.893 130.42 245.396 130.714 245.919 130.968C246.343 131.176 246.78 131.357 247.228 131.51C247.995 131.765 248.491 131.856 248.491 131.886Z" fill="white"/>
<path d="M253.093 117.996H252.883C252.747 117.996 252.537 117.996 252.274 117.996C251.529 117.984 250.789 117.865 250.078 117.643C249.013 117.32 248.02 116.797 247.152 116.101C246.07 115.265 245.217 114.169 244.671 112.915C244.126 111.661 243.906 110.289 244.032 108.927C244.081 108.334 244.187 107.748 244.347 107.175C244.495 106.683 244.681 106.202 244.904 105.739C245.231 105.064 245.651 104.439 246.152 103.881C246.285 103.731 246.426 103.588 246.573 103.453C246.679 103.355 246.731 103.31 246.739 103.317C246.746 103.325 246.536 103.528 246.197 103.926C245.718 104.488 245.318 105.113 245.009 105.784C244.791 106.244 244.613 106.722 244.475 107.213C244.323 107.776 244.225 108.353 244.182 108.935C244.062 110.273 244.279 111.619 244.813 112.852C245.348 114.084 246.183 115.162 247.243 115.988C247.699 116.352 248.187 116.674 248.702 116.951C249.156 117.18 249.626 117.376 250.108 117.538C250.812 117.763 251.543 117.897 252.281 117.936C252.8 117.996 253.093 117.981 253.093 117.996Z" fill="white"/>
<path d="M252.138 53.4672C252.138 53.4672 232.872 53.2341 229.864 69.936C226.856 86.6379 243.107 86.9237 247.792 87.232C249.92 87.3749 254.462 87.3899 258.47 87.3147C267.351 87.1643 273.623 85.4422 275.766 77.2078C276.021 76.2405 276.182 75.2508 276.247 74.2525C276.766 65.2285 270.652 53.0235 252.138 53.4672Z" fill="#188F79"/>
<path d="M266.11 78.8773L238.128 79.3134C237.428 79.3244 236.733 79.1966 236.082 78.9375C235.431 78.6784 234.838 78.2931 234.337 77.8038C233.836 77.3145 233.436 76.7309 233.161 76.0865C232.887 75.4422 232.742 74.7498 232.737 74.0494C232.714 72.6406 233.253 71.2806 234.232 70.2682C235.212 69.2558 236.554 68.6738 237.963 68.6501L265.96 68.2515C266.66 68.2416 267.356 68.37 268.007 68.6293C268.657 68.8887 269.251 69.2739 269.752 69.7629C270.254 70.2519 270.654 70.8351 270.93 71.4791C271.205 72.123 271.351 72.815 271.359 73.5155C271.371 74.9217 270.826 76.2754 269.842 77.2803C268.858 78.2852 267.517 78.8594 266.11 78.8773Z" fill="#263238"/>
<path d="M243.934 73.508C243.869 73.8398 243.707 74.1449 243.469 74.3847C243.231 74.6244 242.927 74.788 242.595 74.8547C242.264 74.9213 241.92 74.8881 241.607 74.7592C241.295 74.6303 241.028 74.4115 240.84 74.1305C240.652 73.8496 240.551 73.5191 240.551 73.181C240.551 72.843 240.652 72.5125 240.84 72.2316C241.028 71.9507 241.295 71.7319 241.608 71.603C241.92 71.4741 242.264 71.441 242.595 71.5077C243.037 71.5967 243.426 71.857 243.677 72.2318C243.928 72.6066 244.02 73.0654 243.934 73.508Z" fill="white"/>
<path d="M263.486 73.1922C263.422 73.5238 263.26 73.8288 263.022 74.0687C262.784 74.3086 262.481 74.4725 262.15 74.5397C261.819 74.6069 261.475 74.5743 261.163 74.4462C260.85 74.318 260.583 74.1 260.394 73.8198C260.205 73.5395 260.104 73.2096 260.103 72.8718C260.102 72.534 260.201 72.2035 260.388 71.9221C260.575 71.6407 260.841 71.4212 261.153 71.2912C261.465 71.1612 261.808 71.1266 262.14 71.1918C262.583 71.2791 262.974 71.5387 263.226 71.9137C263.479 72.2887 263.572 72.7485 263.486 73.1922Z" fill="white"/>
<path d="M248.837 72.7184C248.965 72.7184 248.897 73.3275 249.273 74.1246C249.489 74.5787 249.796 74.9833 250.176 75.3128C250.626 75.7052 251.184 75.9517 251.777 76.0197C252.375 76.0631 252.971 75.9213 253.484 75.6136C253.919 75.3582 254.295 75.015 254.59 74.6059C255.101 73.8915 255.146 73.2974 255.274 73.3049C255.402 73.3125 255.372 73.4553 255.372 73.7411C255.355 74.1426 255.249 74.5354 255.064 74.8917C254.784 75.4296 254.373 75.8876 253.868 76.2227C253.234 76.6523 252.474 76.8563 251.71 76.8017C250.948 76.7206 250.236 76.3809 249.694 75.8392C249.257 75.4265 248.934 74.9087 248.754 74.3352C248.632 73.9517 248.598 73.5453 248.656 73.147C248.709 72.8462 248.784 72.7109 248.837 72.7184Z" fill="white"/>
<path d="M249.702 54.7155H249.634H249.431C249.251 54.7155 248.987 54.7155 248.679 54.7757C247.722 54.8707 246.773 55.029 245.836 55.2494C244.449 55.578 243.099 56.0466 241.806 56.6482C240.22 57.39 238.734 58.33 237.384 59.4456C234.941 61.4879 232.994 64.0595 231.691 66.9656C231.296 67.8414 230.962 68.7435 230.691 69.6653C230.586 69.9962 230.533 70.2518 230.481 70.4173L230.42 70.6128V70.6805C230.42 70.6805 230.42 70.6805 230.42 70.6128L230.466 70.4097C230.503 70.2368 230.548 69.9736 230.646 69.6578C230.883 68.7261 231.19 67.8137 231.564 66.928C232.132 65.6028 232.84 64.3423 233.677 63.168C236.587 59.102 240.895 56.2529 245.776 55.1667C246.727 54.9549 247.692 54.8141 248.664 54.7456C249.002 54.7456 249.273 54.7456 249.416 54.7456H249.687L249.702 54.7155Z" fill="white"/>
<path d="M230.857 77.8245C230.733 77.6398 230.639 77.4368 230.578 77.2229C230.404 76.7342 230.273 76.2308 230.187 75.7189C230.108 75.1939 230.075 74.6629 230.09 74.1322C230.085 73.9117 230.111 73.6917 230.165 73.4779C230.217 73.4779 230.165 74.4856 230.345 75.7339C230.526 76.9822 230.902 77.8094 230.857 77.8245Z" fill="white"/>
<path d="M261.486 67.2739C261.486 67.319 257.801 67.3566 253.259 67.3566C248.717 67.3566 245.024 67.3566 245.024 67.2739C245.024 67.1912 248.709 67.1987 253.259 67.1987C257.808 67.1987 261.486 67.2363 261.486 67.2739Z" fill="white"/>
<path d="M247.438 86.0438C247.438 86.0438 247.393 86.0438 247.303 86.0438H246.904C246.724 86.0438 246.513 86.0438 246.265 86.0438C246.017 86.0438 245.731 86.0438 245.415 86.0438C244.681 86.0376 243.949 85.9925 243.219 85.9085C242.327 85.8047 241.441 85.6515 240.565 85.4497C239.691 85.251 238.829 84.9999 237.986 84.6977C237.296 84.4483 236.621 84.1622 235.963 83.8405C235.677 83.7051 235.429 83.5697 235.211 83.4494C234.993 83.3291 234.805 83.2313 234.654 83.1411L234.308 82.9305L234.195 82.8478C234.195 82.8478 234.241 82.8478 234.323 82.9005L234.684 83.0809C234.835 83.1637 235.023 83.2689 235.248 83.3742C235.474 83.4795 235.722 83.6149 236 83.7352C236.564 83.9984 237.249 84.2841 238.023 84.5624C238.867 84.8566 239.726 85.1075 240.595 85.3144C241.466 85.5154 242.347 85.671 243.235 85.7806C244.047 85.8784 244.791 85.931 245.415 85.9461C245.724 85.9461 246.009 85.9461 246.258 85.9461H247.431L247.438 86.0438Z" fill="white"/>
<path d="M270.991 96.805H270.923L270.705 96.8877L269.87 97.1885C269.509 97.3163 269.066 97.4667 268.539 97.6247C268.013 97.7826 267.419 97.9781 266.757 98.1435L265.712 98.4218L264.569 98.685C263.817 98.873 262.929 99.0234 262.035 99.1963C260.085 99.5259 258.12 99.7569 256.146 99.8882C254.175 99.989 252.2 99.989 250.228 99.8882C249.318 99.828 248.453 99.7829 247.649 99.6927L246.483 99.5723L245.408 99.4219C244.724 99.3392 244.114 99.2189 243.573 99.1287C243.032 99.0384 242.573 98.9407 242.197 98.8579L241.332 98.6624L241.106 98.6098H241.031C241.031 98.6098 241.031 98.6098 241.114 98.6098L241.34 98.6474L242.212 98.8128C242.588 98.888 243.047 98.9782 243.588 99.0534C244.129 99.1286 244.739 99.2565 245.423 99.3317L246.498 99.467C246.867 99.5122 247.25 99.5422 247.656 99.5798C248.461 99.6626 249.326 99.7077 250.228 99.7603C252.048 99.8355 254.048 99.8355 256.139 99.7152C258.229 99.5949 260.215 99.3317 262.004 99.0384C262.899 98.873 263.749 98.7301 264.539 98.5421C264.93 98.4518 265.291 98.3766 265.682 98.2864L266.727 98.0232C267.396 97.8653 267.99 97.6773 268.509 97.5269C269.028 97.3765 269.487 97.2336 269.855 97.1133L270.698 96.8426L270.916 96.7749L270.991 96.805Z" fill="white"/>
<path d="M167.343 116.162C167.258 119.873 167.962 123.56 169.407 126.979C170.852 130.398 173.006 133.472 175.727 135.997C176.97 132.377 178.22 128.757 179.476 125.137" fill="#263238"/>
<path d="M195.598 94.5605C192.377 92.802 188.494 92.5488 184.9 93.2733C181.32 94.1032 177.901 95.5146 174.778 97.4514C172.944 98.3992 171.303 99.6801 169.939 101.229C167.603 104.169 165.296 108.966 165.071 112.743C164.888 115.775 166.049 123.357 167.329 126.108C168.504 128.633 174.004 130.553 176.719 131.179L201.619 102.206C201.172 100.597 200.409 99.0921 199.375 97.7796C198.342 96.4671 197.058 95.3729 195.598 94.5605Z" fill="#263238"/>
<path d="M199.889 98.4713L193.917 97.4022C197.181 105.139 198.067 122.956 199.938 131.165C202.14 127.964 207.253 118.237 206.972 114.368C206.691 110.499 206.986 97.8101 199.889 98.4713Z" fill="#263238"/>
<path d="M203.307 111.146C202.92 105.182 198.946 97.8664 193.003 98.4854L179.251 102.002C177.134 102.54 175.245 103.744 173.862 105.435C172.48 107.127 171.676 109.217 171.57 111.4C171.57 111.625 171.57 111.35 171.57 111.519L174.644 147.139L184.97 167.629L194.114 150.346C194.114 147.441 194.114 140.921 194.114 140.935C194.114 140.949 201.739 139.655 203.258 129.681C204.004 124.771 203.729 117.772 203.307 111.146Z" fill="#FFBF9D"/>
<path d="M199.045 119.306C199.051 119.639 198.926 119.961 198.697 120.203C198.468 120.445 198.154 120.587 197.821 120.6C197.659 120.612 197.495 120.593 197.341 120.542C197.186 120.491 197.043 120.409 196.92 120.303C196.797 120.196 196.697 120.066 196.624 119.92C196.552 119.775 196.509 119.616 196.498 119.453C196.496 119.12 196.623 118.799 196.853 118.558C197.082 118.317 197.397 118.174 197.729 118.159C197.891 118.148 198.054 118.168 198.207 118.22C198.361 118.271 198.503 118.353 198.625 118.459C198.748 118.566 198.847 118.695 198.919 118.841C198.991 118.986 199.034 119.144 199.045 119.306Z" fill="#263238"/>
<path d="M201.816 115.043C201.654 115.212 200.691 114.495 199.312 114.502C197.933 114.509 196.935 115.205 196.787 115.029C196.639 114.853 196.878 114.656 197.314 114.326C197.905 113.91 198.611 113.689 199.333 113.693C200.048 113.69 200.745 113.914 201.324 114.333C201.746 114.67 201.894 114.966 201.816 115.043Z" fill="#263238"/>
<path d="M187.551 119.306C187.557 119.639 187.432 119.961 187.203 120.203C186.975 120.445 186.66 120.587 186.327 120.6C186.165 120.612 186.002 120.593 185.847 120.542C185.693 120.491 185.55 120.409 185.427 120.303C185.304 120.196 185.203 120.066 185.131 119.92C185.059 119.775 185.016 119.616 185.005 119.453C185.003 119.12 185.13 118.799 185.36 118.558C185.589 118.317 185.903 118.174 186.236 118.159C186.398 118.146 186.561 118.165 186.716 118.216C186.87 118.267 187.013 118.348 187.136 118.455C187.258 118.562 187.358 118.692 187.43 118.838C187.501 118.984 187.543 119.143 187.551 119.306Z" fill="#263238"/>
<path d="M188.775 115.043C188.62 115.212 187.65 114.495 186.278 114.502C184.907 114.509 183.901 115.205 183.753 115.029C183.605 114.853 183.837 114.656 184.281 114.326C184.871 113.909 185.577 113.687 186.299 113.693C187.014 113.69 187.711 113.914 188.29 114.333C188.712 114.67 188.853 114.966 188.775 115.043Z" fill="#263238"/>
<path d="M193.066 125.826C193.789 125.596 194.538 125.459 195.296 125.418C195.647 125.418 195.999 125.313 195.999 125.074C196.03 124.711 195.949 124.348 195.767 124.033C195.436 123.189 195.064 122.295 194.726 121.367C193.277 117.568 192.229 114.445 192.384 114.389C192.538 114.333 193.882 117.343 195.289 121.163C195.633 122.098 195.992 122.992 196.287 123.843C196.514 124.275 196.579 124.774 196.47 125.249C196.419 125.373 196.341 125.483 196.241 125.572C196.141 125.661 196.022 125.726 195.894 125.763C195.701 125.815 195.502 125.843 195.303 125.847C194.559 125.933 193.808 125.926 193.066 125.826Z" fill="#263238"/>
<path d="M180.862 137.411C180.862 137.411 184.098 144.241 194.051 143.291V140.949C189.411 141.017 184.844 139.792 180.862 137.411Z" fill="#FF9A6C"/>
<path d="M188.346 110.084C188.213 110.457 186.841 110.281 185.23 110.478C183.619 110.675 182.318 111.118 182.107 110.788C182.009 110.626 182.234 110.274 182.761 109.915C183.456 109.461 184.25 109.179 185.075 109.093C185.9 108.995 186.736 109.092 187.516 109.374C188.107 109.606 188.402 109.908 188.346 110.084Z" fill="#263238"/>
<path d="M201.366 110.844C201.127 111.16 200.177 110.844 199.045 110.844C197.912 110.844 196.935 111.055 196.717 110.731C196.625 110.577 196.773 110.26 197.195 109.965C197.759 109.611 198.416 109.433 199.082 109.451C199.748 109.47 200.393 109.685 200.937 110.07C201.338 110.373 201.471 110.689 201.366 110.844Z" fill="#263238"/>
<path d="M200.606 102.066C200.254 101.335 199.706 100.716 199.023 100.277C198.34 99.8389 197.549 99.5985 196.738 99.5827C195.112 99.5849 193.521 100.051 192.152 100.926C186.229 104.345 183.183 112.617 177.331 116.162C175.889 117.034 174.018 116.232 172.794 117.385C171.57 118.539 170.776 120.389 171.451 121.929C170.613 120.885 169.929 119.727 169.418 118.49C169.169 117.869 169.055 117.202 169.084 116.534C169.114 115.865 169.285 115.211 169.587 114.614C170.093 113.735 170.994 113.067 171.233 112.082C171.451 111.217 171.106 110.316 171.141 109.423C171.243 108.517 171.557 107.647 172.056 106.884C174.349 102.832 177.5 99.1466 181.566 96.8817C184.217 95.3516 187.234 94.5711 190.295 94.6238C193.366 94.6976 196.31 95.8677 198.595 97.9227C199.91 99.1466 201.282 100.406 200.606 102.066Z" fill="#263238"/>
<path d="M172.935 118.623C172.829 118.335 167.645 116.464 167.575 121.979C167.505 127.331 172.914 126.283 172.928 126.129C172.942 125.974 172.935 118.623 172.935 118.623Z" fill="#FFBF9D"/>
<path d="M171.289 124.082C171.289 124.082 171.198 124.145 171.036 124.215C170.925 124.263 170.805 124.287 170.684 124.287C170.563 124.287 170.444 124.263 170.332 124.215C169.77 124.004 169.298 123.104 169.284 122.105C169.276 121.647 169.37 121.193 169.559 120.776C169.611 120.611 169.702 120.46 169.824 120.338C169.947 120.215 170.097 120.124 170.262 120.072C170.37 120.044 170.484 120.055 170.584 120.102C170.684 120.15 170.765 120.232 170.811 120.333C170.881 120.48 170.811 120.586 170.874 120.6C170.937 120.614 170.987 120.509 170.944 120.29C170.921 120.157 170.848 120.036 170.74 119.953C170.594 119.84 170.41 119.79 170.227 119.812C170.006 119.852 169.8 119.948 169.627 120.091C169.455 120.234 169.322 120.419 169.242 120.628C169.007 121.089 168.891 121.602 168.905 122.119C168.905 123.202 169.474 124.229 170.241 124.447C170.385 124.491 170.537 124.501 170.685 124.478C170.834 124.455 170.975 124.399 171.099 124.314C171.282 124.208 171.31 124.089 171.289 124.082Z" fill="#FF9A6C"/>
<path d="M170.804 115.866C170.917 115.816 171.026 115.755 171.127 115.683C171.331 115.557 171.648 115.381 172.028 115.113C173.081 114.34 174.05 113.459 174.918 112.483C176.176 111.019 177.35 109.486 178.435 107.89C179.754 105.933 181.234 104.091 182.86 102.382C183.713 101.53 184.657 100.773 185.673 100.124C186.64 99.533 187.674 99.0606 188.754 98.7175C190.585 98.1251 192.511 97.8864 194.431 98.0141C195.724 98.0815 197.004 98.3179 198.236 98.7175C198.672 98.8511 199.003 99.0059 199.228 99.0903C199.341 99.1401 199.459 99.1801 199.579 99.2098L199.249 99.041C198.928 98.8872 198.599 98.751 198.264 98.6331C197.036 98.1785 195.75 97.8991 194.445 97.8031C192.502 97.6502 190.549 97.8723 188.691 98.4572C187.59 98.7931 186.536 99.2657 185.554 99.864C184.507 100.52 183.533 101.287 182.649 102.15C181.012 103.867 179.529 105.724 178.217 107.7C177.136 109.296 175.974 110.836 174.736 112.314C173.885 113.291 172.943 114.183 171.922 114.98C171.556 115.261 171.219 115.444 171.05 115.585C170.961 115.673 170.879 115.767 170.804 115.866Z" fill="#455A64"/>
<path d="M172.154 117.385C172.07 118.848 171.999 120.389 172.675 121.69C173.35 122.991 175.059 123.878 176.332 123.146C177.366 122.555 177.676 121.226 177.852 120.044C178.365 116.633 178.597 113.179 179.132 109.775L172.154 117.385Z" fill="#263238"/>
<path d="M199.284 99.5123C199.284 99.5123 198.813 99.4279 197.954 99.3998C196.751 99.3774 195.555 99.5975 194.438 100.047C193.658 100.346 192.913 100.728 192.215 101.186C191.416 101.724 190.65 102.308 189.922 102.938C188.241 104.367 186.736 105.991 185.441 107.777C184.738 108.734 184.161 109.711 183.507 110.591C182.889 111.477 182.169 112.286 181.362 113.003C179.969 114.18 178.45 115.197 176.832 116.035C175.425 116.738 174.314 117.266 173.526 117.618L172.611 118.004C172.505 118.054 172.394 118.094 172.281 118.124C172.281 118.124 172.379 118.054 172.583 117.948L173.477 117.505C174.25 117.125 175.383 116.591 176.733 115.845C178.321 114.992 179.812 113.968 181.179 112.792C181.975 112.087 182.683 111.289 183.289 110.415C183.929 109.515 184.534 108.53 185.223 107.601C186.531 105.793 188.06 104.155 189.774 102.727C190.514 102.095 191.294 101.512 192.109 100.982C192.825 100.521 193.589 100.138 194.388 99.8429C195.546 99.4064 196.782 99.2147 198.018 99.2802C198.352 99.2984 198.684 99.3455 199.01 99.4209C199.104 99.4426 199.196 99.4733 199.284 99.5123Z" fill="#455A64"/>
<path d="M172.006 114.073C171.858 114.196 171.698 114.305 171.528 114.396L170.171 115.191L169.713 115.451C169.534 115.556 169.336 115.623 169.13 115.648C169.004 115.661 168.878 115.631 168.771 115.564C168.714 115.527 168.666 115.478 168.63 115.421C168.594 115.364 168.57 115.3 168.56 115.233C168.565 114.977 168.654 114.73 168.813 114.53L170.389 112.005L170.6 112.209C170.08 112.594 169.497 112.884 168.876 113.067C168.256 113.251 167.609 113.327 166.963 113.292C166.798 113.288 166.635 113.259 166.478 113.207C166.385 113.182 166.3 113.136 166.228 113.073C166.156 113.009 166.099 112.93 166.063 112.842C166.031 112.751 166.023 112.655 166.037 112.56C166.052 112.466 166.09 112.376 166.147 112.3C166.24 112.18 166.343 112.069 166.457 111.969C167.161 111.284 167.773 110.511 168.278 109.669C168.722 108.874 169.11 108.049 169.439 107.2C169.411 107.441 169.355 107.677 169.27 107.904C169.064 108.548 168.793 109.171 168.461 109.761C167.971 110.639 167.361 111.444 166.647 112.152C166.45 112.342 166.253 112.56 166.33 112.729C166.407 112.898 166.696 112.982 166.977 112.982C168.21 113.045 169.427 112.683 170.424 111.955L171.064 111.484L170.635 112.187L169.031 114.692C168.906 114.839 168.828 115.02 168.806 115.212C168.806 115.367 168.94 115.451 169.108 115.437C169.452 115.37 169.78 115.236 170.072 115.043L171.479 114.34C171.642 114.227 171.819 114.137 172.006 114.073Z" fill="#455A64"/>
<path d="M191.877 128.429C191.613 128.126 191.277 127.893 190.899 127.753C190.522 127.613 190.116 127.57 189.718 127.627C189.428 127.661 189.148 127.752 188.895 127.896C188.641 128.04 188.419 128.233 188.241 128.464C188.071 128.685 187.975 128.954 187.965 129.232C187.955 129.511 188.031 129.785 188.184 130.018C188.408 130.244 188.693 130.4 189.004 130.468C189.315 130.535 189.638 130.511 189.936 130.398C190.55 130.159 191.111 129.803 191.589 129.35C191.735 129.244 191.859 129.11 191.955 128.956C192.003 128.884 192.028 128.8 192.028 128.714C192.028 128.627 192.003 128.543 191.955 128.471" fill="#FF9A6C"/>
<path d="M188.48 126.304C188.698 126.304 188.74 127.711 189.999 128.654C191.258 129.596 192.813 129.42 192.813 129.617C192.813 129.702 192.482 129.899 191.835 129.934C191.001 129.979 190.177 129.73 189.507 129.231C188.867 128.753 188.44 128.043 188.318 127.254C188.255 126.649 188.381 126.297 188.48 126.304Z" fill="#263238"/>
<path d="M208.463 221.508L214.224 234.521L186.264 244.98L180.011 230.99L208.463 221.508Z" fill="#263238"/>
<path d="M264.959 300.689L272.605 317.197C272.605 317.197 291.702 314.665 293.412 317.584L262.195 333.854L249.218 308.623L264.959 300.689Z" fill="#455A64"/>
<path d="M262.42 320.721C262.163 320.97 262.007 321.305 261.981 321.662C261.955 322.019 262.061 322.372 262.28 322.656C262.519 322.92 262.849 323.084 263.204 323.114C263.559 323.144 263.913 323.038 264.193 322.818C264.465 322.554 264.63 322.199 264.656 321.821C264.682 321.443 264.567 321.069 264.333 320.771C264.056 320.518 263.692 320.383 263.318 320.392C262.943 320.401 262.586 320.554 262.322 320.82" fill="#E0E0E0"/>
<path d="M262.188 333.854L261.161 331.877L291.78 316.691C292.145 316.723 292.5 316.829 292.823 317.003C293.146 317.177 293.43 317.416 293.658 317.704L262.188 333.854Z" fill="#263238"/>
<path d="M272.95 317.155C273.02 317.31 272.282 317.774 271.775 318.654C271.269 319.533 271.191 320.398 271.016 320.412C270.84 320.426 270.615 319.406 271.255 318.351C271.895 317.296 272.908 316.994 272.95 317.155Z" fill="#263238"/>
<path d="M276.966 316.839C277.079 316.972 276.544 317.577 276.354 318.499C276.164 319.42 276.354 320.187 276.2 320.257C276.045 320.327 275.496 319.505 275.764 318.365C276.031 317.226 276.882 316.691 276.966 316.839Z" fill="#263238"/>
<path d="M280.877 319.863C280.758 319.962 280.174 319.3 280.11 318.252C280.047 317.204 280.631 316.494 280.765 316.592C280.898 316.691 280.68 317.366 280.715 318.231C280.751 319.097 281.025 319.765 280.877 319.863Z" fill="#263238"/>
<path d="M270.769 313.589C270.769 313.758 269.96 313.905 269.116 314.412C268.272 314.918 267.71 315.537 267.576 315.446C267.442 315.354 267.808 314.468 268.807 313.891C269.806 313.315 270.783 313.399 270.769 313.589Z" fill="#263238"/>
<path d="M269.56 309.777C269.56 309.84 269.032 310.248 267.97 310.579C267.346 310.768 266.701 310.879 266.05 310.909C265.666 310.937 265.28 310.937 264.896 310.909C264.657 310.903 264.419 310.86 264.193 310.783C264.034 310.725 263.9 310.617 263.81 310.474C263.721 310.331 263.682 310.162 263.7 309.995C263.723 309.847 263.779 309.706 263.866 309.584C263.953 309.461 264.067 309.361 264.2 309.291C264.399 309.188 264.612 309.114 264.833 309.073C265.214 308.987 265.603 308.933 265.993 308.912C266.653 308.882 267.312 308.956 267.949 309.13C269.025 309.439 269.574 309.889 269.531 309.946C269.489 310.002 268.884 309.728 267.85 309.545C267.249 309.441 266.637 309.415 266.029 309.467C265.675 309.499 265.324 309.56 264.98 309.65C264.594 309.728 264.277 309.875 264.277 310.065C264.277 310.143 264.277 310.164 264.404 310.227C264.563 310.281 264.728 310.312 264.896 310.318C265.256 310.358 265.617 310.376 265.979 310.375C266.593 310.366 267.205 310.302 267.808 310.185C268.381 310.007 268.967 309.871 269.56 309.777Z" fill="#263238"/>
<path d="M235.255 327.214L234.285 345.382C234.285 345.382 252.341 352.086 252.488 355.462L217.284 355.23L217.628 326.862L235.255 327.214Z" fill="#455A64"/>
<path d="M223.635 343.736C223.29 343.832 222.993 344.053 222.802 344.356C222.611 344.659 222.539 345.022 222.601 345.375C222.69 345.72 222.906 346.019 223.206 346.211C223.507 346.403 223.869 346.474 224.219 346.409C224.583 346.304 224.896 346.067 225.096 345.745C225.296 345.423 225.369 345.038 225.302 344.665C225.176 344.312 224.918 344.022 224.581 343.857C224.245 343.692 223.858 343.663 223.502 343.779" fill="#E0E0E0"/>
<path d="M217.284 355.23V352.972L251.447 353.879C251.756 354.078 252.02 354.338 252.225 354.643C252.429 354.947 252.569 355.291 252.636 355.652L217.284 355.23Z" fill="#263238"/>
<path d="M234.601 345.502C234.601 345.678 233.729 345.741 232.864 346.282C231.998 346.824 231.534 347.549 231.372 347.478C231.211 347.408 231.492 346.409 232.547 345.769C233.602 345.129 234.678 345.347 234.601 345.502Z" fill="#263238"/>
<path d="M238.308 347.106C238.343 347.281 237.605 347.563 236.986 348.287C236.367 349.012 236.198 349.779 236.022 349.771C235.846 349.764 235.762 348.78 236.521 347.893C237.281 347.007 238.308 346.944 238.308 347.106Z" fill="#263238"/>
<path d="M240.348 351.607C240.186 351.642 239.961 350.77 240.425 349.828C240.889 348.885 241.705 348.519 241.776 348.667C241.846 348.815 241.333 349.314 240.967 350.074C240.601 350.833 240.517 351.572 240.348 351.607Z" fill="#263238"/>
<path d="M234.362 341.31C234.285 341.464 233.497 341.211 232.512 341.26C231.527 341.31 230.761 341.605 230.676 341.457C230.592 341.31 231.33 340.698 232.491 340.655C233.652 340.613 234.453 341.176 234.362 341.31Z" fill="#263238"/>
<path d="M235.065 337.406C234.479 337.549 233.865 337.535 233.286 337.364C232.645 337.238 232.021 337.034 231.429 336.759C231.079 336.594 230.741 336.406 230.416 336.196C230.218 336.082 230.04 335.937 229.888 335.767C229.777 335.642 229.71 335.484 229.699 335.317C229.687 335.15 229.732 334.984 229.825 334.845C229.915 334.726 230.03 334.63 230.163 334.563C230.296 334.496 230.443 334.46 230.592 334.459C230.818 334.465 231.043 334.5 231.26 334.564C232.278 334.843 233.211 335.369 233.975 336.097C234.784 336.878 235.058 337.504 234.995 337.561C234.932 337.617 234.524 337.068 233.694 336.421C233.212 336.049 232.685 335.739 232.125 335.5C231.795 335.36 231.454 335.249 231.105 335.169C230.732 335.063 230.402 335.056 230.31 335.218C230.219 335.38 230.268 335.31 230.346 335.422C230.463 335.542 230.596 335.646 230.74 335.732C231.039 335.933 231.349 336.119 231.668 336.287C232.216 336.572 232.788 336.807 233.377 336.991C233.949 337.087 234.514 337.226 235.065 337.406Z" fill="#263238"/>
<path d="M154.738 239.993C154.738 239.993 225.281 231.159 229.438 231.159C239.194 231.159 245.321 238.594 246.777 244.333C247.853 248.554 269.567 309.924 269.567 309.924L253.55 318.224L229.994 276.366L217.987 255.482L156.089 265.041L154.738 239.993Z" fill="#263238"/>
<path d="M220.899 253.555C220.899 253.555 230.571 253.555 235.79 261.292C238.857 265.843 237.78 273.953 237.844 280.094C237.928 288.443 235.909 339.312 235.909 339.312L216.137 339.643L211.994 286.628L212.233 276.83L172.78 273.608C172.78 273.608 169.186 261.651 178.027 252.197C179.111 250.987 220.899 253.555 220.899 253.555Z" fill="#263238"/>
<path d="M160.766 222.936C160.766 222.936 145.172 246.936 154.738 264.971C159.296 273.559 172.935 273.552 172.935 273.552L186.925 256.038V227.072L160.766 222.936Z" fill="#263238"/>
<path d="M172.935 273.552C173.02 273.498 173.109 273.451 173.202 273.412L173.99 273.046L177.029 271.639L188.283 266.638L204.946 259.273L214.794 254.933C215.659 254.575 216.489 254.146 217.403 253.836C218.319 253.52 219.26 253.285 220.217 253.133C222.17 252.842 224.154 252.825 226.111 253.084C228.076 253.317 229.991 253.858 231.788 254.687C232.67 255.103 233.489 255.64 234.221 256.284C234.934 256.933 235.539 257.69 236.015 258.528C236.946 260.146 237.51 261.95 237.668 263.81C237.745 264.725 237.668 265.604 237.668 266.483C237.668 267.362 237.668 268.228 237.668 269.086C237.583 275.944 237.513 282.112 237.457 287.303C237.401 292.494 237.323 296.666 237.281 299.585C237.281 300.991 237.232 302.138 237.218 302.926C237.218 303.291 237.218 303.58 237.218 303.791C237.225 303.889 237.225 303.988 237.218 304.086C237.211 303.988 237.211 303.889 237.218 303.791C237.218 303.58 237.218 303.291 237.218 302.926C237.218 302.138 237.218 301.02 237.218 299.585C237.218 296.666 237.218 292.473 237.267 287.303C237.316 282.134 237.344 275.937 237.394 269.086C237.394 268.228 237.394 267.362 237.394 266.483C237.394 265.604 237.436 264.711 237.358 263.838C237.205 262.036 236.655 260.29 235.748 258.725C235.293 257.921 234.714 257.195 234.031 256.572C233.326 255.953 232.534 255.439 231.682 255.046C229.926 254.234 228.053 253.702 226.132 253.47C224.212 253.219 222.266 253.236 220.35 253.52C219.417 253.674 218.499 253.91 217.607 254.223C216.728 254.525 215.877 254.926 215.019 255.313L205.171 259.632L188.48 266.919L177.226 271.801L174.152 273.109L173.35 273.44C173.219 273.499 173.078 273.537 172.935 273.552Z" fill="#455A64"/>
<path d="M228.046 231.159C228.046 231.257 213.239 232.924 194.951 234.88C176.663 236.835 161.828 238.34 161.814 238.242C161.8 238.144 176.621 236.476 194.909 234.521C213.197 232.566 228.031 231.06 228.046 231.159Z" fill="#455A64"/>
<path d="M210.609 196.193C211.755 192.543 215.764 179.108 214.864 172.025C214.161 166.398 209.075 159.125 207.563 155.256C206.859 153.434 201.155 151.556 197.758 150.55L194.381 146.562L194.1 148.51C193.105 149.649 191.858 150.539 190.459 151.112C189.06 151.684 187.547 151.923 186.039 151.809C181.024 151.359 176.895 149.312 174.173 146.288C161.146 150.262 161.188 151.148 158.698 152.14C155.477 153.42 165.113 184.292 165.113 184.292C165.113 184.292 168.567 203.684 165.317 210.219C163.488 213.898 161.371 218.097 159.817 221.515C159.817 221.515 155.484 229.773 156.412 229.562C158.361 229.112 171.887 232.376 184.597 233.079C208.097 234.317 212.592 230.835 212.592 230.835C211.361 224.821 209.3 203.741 209.307 199.647C209.293 198.937 210.405 196.826 210.609 196.193Z" fill="#188F79"/>
<path d="M194.796 147.526C194.796 147.526 210.109 151.472 211.607 153.512C215.68 159.047 240.214 196.925 228.172 208.221C220.28 215.621 209.181 200.006 209.181 200.006L194.796 147.526Z" fill="#188F79"/>
<path d="M226.702 192.135C226.339 192.103 225.979 192.042 225.626 191.952L222.693 191.347C220.196 190.841 216.7 190.123 212.69 189.546L212.901 189.427L211.699 192.395L208.843 199.366V199.19L213.274 204.507L214.505 206.027C214.658 206.201 214.795 206.39 214.913 206.589C214.913 206.589 216.046 207.11 214.421 206.097L213.106 204.641L208.562 199.415L208.491 199.33L208.533 199.239L211.347 192.247C211.762 191.234 212.17 190.243 212.557 189.286L212.613 189.145H212.775C216.805 189.743 220.294 190.503 222.777 191.08C224.022 191.368 225.007 191.614 225.689 191.783C226.035 191.875 226.373 191.993 226.702 192.135Z" fill="#263238"/>
<path d="M211.973 190.355C211.975 189.938 212.012 189.521 212.086 189.11C212.198 188.252 212.339 187.113 212.515 185.741C213.04 182.056 213.165 178.325 212.887 174.613C212.506 170.899 211.432 167.29 209.722 163.971C209.082 162.691 208.498 161.678 208.09 160.982C207.861 160.631 207.656 160.264 207.478 159.884C207.478 159.884 207.563 159.969 207.689 160.138C207.816 160.306 207.999 160.567 208.224 160.904C208.674 161.608 209.293 162.571 209.975 163.851C211.777 167.173 212.901 170.819 213.281 174.578C213.564 178.317 213.398 182.076 212.789 185.776C212.585 187.183 212.381 188.343 212.24 189.131C212.184 189.546 212.094 189.955 211.973 190.355Z" fill="#263238"/>
<g opacity="0.3">
<path d="M161.814 218.631L190.801 205.267L188.839 199.534L193.298 197.832L200.564 198.782C202.361 199.019 204.189 198.839 205.905 198.256C207.621 197.673 209.18 196.702 210.461 195.42L192.405 190.855L171.81 195.244L166.576 180.072L165.282 184.517L166.358 194.062L167.062 204.374L161.814 218.631Z" fill="black"/>
</g>
<path d="M159.05 151.985C157.264 152.768 155.674 153.935 154.392 155.404C153.11 156.873 152.169 158.607 151.636 160.482C150.641 162.702 149.886 165.023 149.385 167.404C146.945 178.165 141.648 198.353 141.451 203.741C141.071 213.433 148.781 216.184 152.945 217.028C157.109 217.872 186.004 202.918 186.004 202.918L179.997 186.592L162.335 193.9C162.335 193.9 166.365 181.45 167.533 176.358C168.701 171.265 159.05 151.985 159.05 151.985Z" fill="#188F79"/>
<path d="M212.796 187.626C212.444 186.027 212.39 184.377 212.634 182.759C212.838 181.787 212.873 180.788 212.74 179.804C212.557 178.841 211.656 177.821 210.679 177.898L209.202 184.995L212.796 187.626Z" fill="#FFBF9D"/>
<path d="M212.114 170.97L206.916 196.053L194.585 195.307L198.236 170.491C198.283 170.175 198.443 169.887 198.686 169.679C198.929 169.471 199.238 169.357 199.558 169.359H210.812C211.011 169.359 211.207 169.403 211.387 169.488C211.566 169.574 211.724 169.698 211.849 169.853C211.973 170.007 212.062 170.188 212.108 170.381C212.154 170.575 212.156 170.776 212.114 170.97Z" fill="#263238"/>
<path d="M198.25 177.49C198.334 177.262 198.398 177.026 198.44 176.787C198.545 176.259 198.686 175.577 198.855 174.754L199.439 171.743C199.439 171.603 199.488 171.448 199.523 171.335C199.57 171.214 199.645 171.106 199.741 171.019C199.838 170.926 199.961 170.862 200.093 170.836C200.238 170.825 200.384 170.825 200.529 170.836H202.477C205.143 170.836 207.563 170.794 209.307 170.766L211.417 170.709C211.672 170.718 211.927 170.699 212.177 170.653C211.925 170.622 211.671 170.608 211.417 170.611H209.307C207.563 170.611 205.143 170.611 202.477 170.611H200.529C200.365 170.594 200.2 170.594 200.037 170.611C199.867 170.648 199.709 170.728 199.579 170.843C199.453 170.959 199.356 171.104 199.298 171.265C199.257 171.413 199.224 171.564 199.2 171.715C199.003 172.841 198.827 173.861 198.672 174.74L198.341 176.78C198.292 177.014 198.262 177.251 198.25 177.49Z" fill="#455A64"/>
<path d="M204.841 172.018C204.894 171.882 204.995 171.771 205.124 171.704C205.253 171.636 205.403 171.618 205.544 171.652C205.656 171.682 205.757 171.744 205.834 171.83C205.912 171.916 205.962 172.023 205.98 172.137C205.985 172.262 205.956 172.386 205.896 172.496C205.837 172.606 205.749 172.698 205.643 172.763C205.533 172.825 205.407 172.852 205.281 172.84C205.156 172.829 205.036 172.78 204.939 172.7C204.85 172.613 204.793 172.499 204.775 172.375C204.757 172.252 204.78 172.127 204.841 172.018Z" fill="#FAFAFA"/>
<path d="M205.178 179.586C205.467 179.657 211.987 183.026 211.987 183.026L215.392 186.613C215.392 186.613 216.622 188.723 215.624 191.931C214.625 195.138 213 196.313 209.251 197.241L202.168 196.123L198.581 193.183C198.238 192.898 197.988 192.518 197.863 192.091C197.737 191.664 197.742 191.209 197.877 190.784L197.926 190.636L197.518 189.933C197.394 189.724 197.334 189.484 197.345 189.241C197.356 188.999 197.438 188.765 197.582 188.568C197.776 188.306 198.066 188.13 198.388 188.08C198.711 188.03 199.041 188.109 199.305 188.301L203.342 191.255L206.121 191.621L206.536 190.714L202.463 188.604L197.286 184.594C197.123 184.469 196.987 184.312 196.887 184.132C196.786 183.953 196.723 183.755 196.702 183.55C196.68 183.346 196.7 183.139 196.761 182.942C196.821 182.746 196.921 182.564 197.054 182.407C197.286 182.133 197.608 181.95 197.962 181.891C198.316 181.832 198.68 181.9 198.988 182.083L203.8 184.897L208.822 187.112L208.027 185.115L202.126 180.747C202.126 180.747 201.619 178.686 205.178 179.586Z" fill="#FFBF9D"/>
<path d="M204.587 176.147C204.587 176.147 203.23 175.366 200.972 176.301C198.714 177.237 195.83 178.651 195.83 178.651L191.504 179.882L192.018 178.813C192.018 178.813 196.287 179.249 196.083 176.14L193.509 176.252L191.3 175.12L186.946 179.34L185.308 185.326L180.517 187.816L184.281 198.057L191.04 194.308L199.481 194.146L202.583 191.635L202.927 188.449L205.966 185.354C205.966 185.354 206.346 183.807 204.946 183.659C203.546 183.511 200.177 186.859 200.177 186.859L196.794 186.937C196.794 186.937 196.217 186.409 196.688 186.107C197.16 185.804 207.127 180.909 207.57 179.811C208.013 178.714 208.47 177.997 207.478 177.701C206.592 177.568 205.686 177.655 204.841 177.954C204.841 177.954 205.34 176.386 204.587 176.147Z" fill="#FFBF9D"/>
<path d="M196.323 182.266C197.838 181.64 199.319 180.936 200.761 180.156C202.242 179.466 203.686 178.698 205.087 177.856C203.572 178.469 202.09 179.161 200.648 179.931C199.165 180.631 197.721 181.41 196.323 182.266Z" fill="#FF9A6C"/>
<path d="M194.311 190.221C194.472 190.297 194.642 190.352 194.817 190.383C195.148 190.468 195.633 190.594 196.224 190.7C196.936 190.83 197.66 190.88 198.384 190.847C199.278 190.799 200.151 190.559 200.944 190.144C202.353 189.356 203.577 188.274 204.531 186.972C204.904 186.486 205.192 186.086 205.382 185.804C205.494 185.663 205.588 185.51 205.664 185.347C205.209 185.827 204.782 186.332 204.383 186.859C203.411 188.102 202.204 189.142 200.831 189.919C200.068 190.32 199.23 190.56 198.369 190.622C197.665 190.666 196.957 190.636 196.259 190.531C195.063 190.341 194.318 190.179 194.311 190.221Z" fill="#FF9A6C"/>
<path d="M180.517 187.816L180.82 187.64L181.734 187.141L185.251 185.27L185.209 185.319L186.813 179.319L191.146 175.099L191.216 175.028L191.3 175.078L193.516 176.203H193.446L196.02 176.083H196.175V176.231C196.216 176.716 196.121 177.204 195.901 177.638C195.648 178.03 195.289 178.342 194.867 178.538C193.955 178.934 192.957 179.089 191.969 178.988L192.13 178.897L191.624 179.973L191.427 179.741L195.753 178.496L199.973 176.576C201.324 175.872 203.061 175.253 204.714 175.985C204.813 176.021 204.903 176.077 204.98 176.15C205.056 176.222 205.116 176.31 205.157 176.407C205.23 176.581 205.266 176.767 205.263 176.956C205.266 177.313 205.216 177.668 205.115 178.011L204.883 177.786C205.384 177.625 205.9 177.514 206.423 177.455C206.992 177.353 207.578 177.458 208.076 177.75C208.218 177.859 208.314 178.017 208.344 178.194C208.372 178.349 208.372 178.509 208.344 178.665C208.267 178.931 208.173 179.192 208.062 179.446L207.907 179.818C207.875 179.891 207.838 179.962 207.795 180.029C207.747 180.091 207.695 180.15 207.64 180.205C207.434 180.395 207.216 180.572 206.986 180.733C205.198 181.885 203.353 182.946 201.457 183.912L198.707 185.319C198.257 185.558 197.807 185.783 197.357 186.022C197.153 186.135 196.85 186.261 196.822 186.353C196.794 186.444 196.899 186.669 197.047 186.81L196.921 186.761L200.304 186.683L200.184 186.733C201.176 185.745 202.265 184.859 203.434 184.088C203.727 183.9 204.038 183.742 204.362 183.617C204.707 183.477 205.089 183.46 205.446 183.567C205.629 183.623 205.796 183.723 205.932 183.857C206.068 183.992 206.169 184.158 206.226 184.341C206.314 184.687 206.314 185.05 206.226 185.396V185.438L203.026 188.555L203.068 188.463C202.949 189.56 202.829 190.622 202.716 191.656V191.713L202.674 191.748L199.558 194.245H199.523H199.509L191.033 194.379H191.082L186.053 197.115L184.731 197.818L184.393 197.994C184.316 198.036 184.274 198.05 184.274 198.043L184.379 197.973L184.71 197.776L186.004 197.03L190.991 194.217H191.033L199.474 194.02H199.396L202.491 191.502L202.435 191.6C202.548 190.573 202.66 189.511 202.773 188.414V188.386L202.808 188.351L205.839 185.249L205.797 185.326C205.924 184.756 205.797 184.039 205.206 183.919C204.899 183.876 204.585 183.897 204.286 183.982C203.986 184.066 203.708 184.213 203.469 184.412C202.324 185.17 201.259 186.042 200.29 187.014L200.24 187.063H200.212L196.836 187.155H196.759L196.71 187.106C196.603 187.005 196.513 186.889 196.442 186.761C196.398 186.683 196.372 186.597 196.364 186.509C196.357 186.42 196.369 186.331 196.4 186.247C196.48 186.1 196.606 185.984 196.759 185.917L197.096 185.741L198.447 185.038L201.19 183.631C203.071 182.669 204.902 181.613 206.677 180.466C206.879 180.306 207.069 180.132 207.246 179.945C207.288 179.906 207.325 179.864 207.359 179.818C207.389 179.775 207.413 179.728 207.429 179.678L207.591 179.305C207.774 178.841 208.055 178.25 207.739 178.039C207.309 177.805 206.812 177.728 206.332 177.821C205.835 177.873 205.344 177.977 204.869 178.13L204.545 178.236L204.637 177.905C204.726 177.599 204.771 177.282 204.77 176.963C204.77 176.653 204.665 176.386 204.468 176.33C203.757 176.039 202.975 175.97 202.224 176.133C201.467 176.301 200.736 176.571 200.051 176.934L195.88 178.834L191.547 180.065L191.195 180.163L191.357 179.832L191.87 178.763L191.912 178.665H192.032C192.959 178.761 193.896 178.62 194.754 178.257C195.145 178.068 195.471 177.767 195.69 177.392C195.877 177.012 195.96 176.59 195.929 176.168L196.091 176.308L193.516 176.414H193.474L191.265 175.267H191.427L187.066 179.488V179.439C186.412 181.774 185.849 183.793 185.392 185.417V185.453L181.819 187.26L180.89 187.717L180.517 187.816Z" fill="#FF9A6C"/>
<path d="M162.342 214.207C162.483 214.116 162.631 214.036 162.785 213.968L164.086 213.321L169.01 210.971L185.969 202.953L185.877 203.171C184.78 200.174 183.598 196.932 182.36 193.577C181.502 191.199 180.658 188.885 179.849 186.648L180.088 186.754L162.806 194.013H162.771C161.355 194.135 159.961 194.448 158.628 194.941C157.626 195.31 156.711 195.883 155.941 196.622C155.454 197.091 155.067 197.654 154.802 198.275C154.717 198.486 154.668 198.655 154.633 198.768C154.624 198.828 154.607 198.887 154.583 198.944C154.571 198.883 154.571 198.821 154.583 198.761C154.617 198.586 154.664 198.415 154.724 198.247C154.967 197.603 155.341 197.017 155.821 196.524C156.595 195.752 157.519 195.149 158.537 194.751C159.891 194.227 161.311 193.893 162.757 193.76H162.715L179.948 186.409L180.124 186.339L180.187 186.515C181.003 188.751 181.847 191.066 182.705 193.436C183.929 196.791 185.104 200.041 186.222 203.037L186.278 203.192L186.13 203.262L169.123 211.154L164.199 213.419L162.869 214.01C162.698 214.086 162.522 214.152 162.342 214.207Z" fill="#263238"/>
<path d="M168.236 169.394C167.818 168.725 167.435 168.035 167.09 167.326C166.386 166.039 165.387 164.302 164.142 162.459C162.897 160.616 161.652 159.04 160.717 157.915C160.187 157.333 159.689 156.722 159.226 156.086C159.226 156.086 159.416 156.213 159.711 156.501C160.006 156.789 160.414 157.204 160.914 157.746C163.476 160.589 165.632 163.773 167.322 167.207C167.638 167.861 167.884 168.402 168.025 168.789C168.126 168.979 168.197 169.183 168.236 169.394Z" fill="#263238"/>
<path d="M168.933 172.841C168.904 173.145 168.838 173.445 168.736 173.734C168.581 174.297 168.349 175.141 168.032 176.104C167.434 178.109 166.583 180.866 165.613 183.898C164.642 186.93 163.713 189.666 163.017 191.635C162.665 192.613 162.377 193.408 162.159 193.956C162.069 194.246 161.947 194.525 161.793 194.786C161.843 194.487 161.921 194.193 162.025 193.907C162.222 193.281 162.475 192.5 162.771 191.551C163.432 189.49 164.297 186.782 165.261 183.814C166.225 180.845 167.118 178.116 167.786 176.076L168.581 173.741C168.666 173.429 168.784 173.128 168.933 172.841Z" fill="#263238"/>
</svg>
